<svg xmlns="http://www.w3.org/2000/svg" width="140" height="159" fill="none"><path fill="#00F0DE" d="M67.168 82.169.516 43.606v76.688l15.963 9.215V72.792L48.69 92.457v55.646l18.478 10.708V82.169Z"/><path fill="#00F0DE" d="M50.258 129.9 14.96 109.796l.092-19.243 35.205 20.205V129.9Zm22.277-47.731 66.653-38.563v76.688l-15.964 9.215V72.792L91.013 92.457v55.646l-18.478 10.708V82.169Z"/><path fill="#00F0DE" d="m89.477 129.9 35.296-20.104-.091-19.243-35.205 20.205V129.9Z"/><path fill="#008D83" d="m136.931 38.677-17.281 10.18-51.223-29.616 14.811 20.36-8.64 4.937L35.1 36.825l52.458 30.542-17.59 9.872L3.626 38.677l30.06-17.474 20.855 4.812-10.396-10.891L69.969.114l66.962 38.563Z"/></svg>