<svg xmlns="http://www.w3.org/2000/svg" width="127" height="127" fill="none"><path fill="#000" d="m63.52.662 54.453 31.468v62.935l-54.452 31.468L9.068 95.065V32.13L63.521.662Z"/><path fill="#00F0DE" d="M61.466 64.917 12.63 36.654v56.204l11.696 6.754V58.045l23.602 14.412v40.782l13.54 7.848v-56.17Z"/><path fill="#00F0DE" d="M49.07 99.897 23.206 85.163l.067-14.103L49.07 85.868v14.029Zm16.33-34.98 48.836-28.263v56.204l-11.696 6.754V58.045L78.938 72.457v40.782L65.4 121.087v-56.17Z"/><path fill="#00F0DE" d="m77.8 99.897 25.862-14.734-.067-14.103L77.8 85.868v14.029Z"/><path fill="#008D83" d="M112.566 33.038 99.906 40.5 62.372 18.794l10.853 14.923-6.332 3.617-28.94-5.652L76.39 54.065l-12.888 7.236-48.61-28.263 22.014-12.8 15.293 3.53-7.624-7.989L63.503 4.775l49.063 28.263Z"/></svg>