<svg xmlns="http://www.w3.org/2000/svg" width="556" height="127" fill="none"><path fill="#000" d="m63.52.662 54.453 31.468v62.935l-54.452 31.468L9.068 95.065V32.13L63.521.662Z"/><path fill="#00F0DE" d="M61.466 64.917 12.63 36.654v56.204l11.696 6.754V58.045l23.602 14.412v40.782l13.54 7.848v-56.17Z"/><path fill="#00F0DE" d="M49.07 99.897 23.206 85.163l.067-14.103L49.07 85.868v14.029Zm16.33-34.98 48.836-28.263v56.204l-11.696 6.754V58.045L78.938 72.457v40.782L65.4 121.087v-56.17Z"/><path fill="#00F0DE" d="m77.8 99.897 25.862-14.734-.067-14.103L77.8 85.868v14.029Z"/><path fill="#008D83" d="M112.566 33.038 99.906 40.5 62.372 18.794l10.853 14.923-6.332 3.617-28.94-5.652L76.39 54.065l-12.888 7.236-48.61-28.263 22.014-12.8 15.293 3.53-7.624-7.989L63.503 4.775l49.063 28.263Z"/><path fill="#0C0C0C" d="M163.353 90.293c-1.565 0-3.002-.38-4.313-1.142a9.302 9.302 0 0 1-3.044-3.107c-.761-1.269-1.142-2.685-1.142-4.25V68.097h29.808v-5.835c0-.338-.127-.613-.381-.824a1.022 1.022 0 0 0-.824-.38h-28.603V53.51h28.856c1.607 0 3.045.401 4.313 1.205a8.747 8.747 0 0 1 3.044 3.044c.761 1.268 1.142 2.684 1.142 4.249v28.285h-28.856Zm.253-7.547h21.056v-7.737h-22.261v6.532c0 .338.106.634.317.888.254.211.55.317.888.317Zm46.545 7.547V53.51h46.297c1.606 0 3.044.401 4.312 1.205a8.738 8.738 0 0 1 3.044 3.044c.761 1.268 1.142 2.684 1.142 4.249v28.285h-7.547V62.261c0-.338-.127-.613-.381-.824a1.022 1.022 0 0 0-.824-.38h-13.635c-.296 0-.571.126-.825.38-.211.212-.317.486-.317.825v28.031h-7.674V62.261c0-.338-.105-.613-.317-.824a1.022 1.022 0 0 0-.824-.38h-13.699c-.296 0-.571.126-.824.38-.212.212-.317.486-.317.825v28.031h-7.611Zm81.998 0c-1.564 0-3.002-.38-4.313-1.142a9.302 9.302 0 0 1-3.044-3.107c-.761-1.269-1.141-2.685-1.141-4.25V68.097h29.807v-5.835c0-.338-.127-.613-.381-.824a1.022 1.022 0 0 0-.824-.38h-28.602V53.51h28.856c1.606 0 3.044.401 4.312 1.205a8.738 8.738 0 0 1 3.044 3.044c.761 1.268 1.142 2.684 1.142 4.249v28.285h-28.856Zm.254-7.547h21.055v-7.737h-22.26v6.532c0 .338.105.634.317.888.253.211.549.317.888.317Zm54.625 7.547c-1.564 0-3.002-.38-4.312-1.142a9.296 9.296 0 0 1-3.045-3.107c-.761-1.269-1.141-2.685-1.141-4.25V62.009c0-1.565.38-2.98 1.141-4.25a8.741 8.741 0 0 1 3.045-3.043 8.093 8.093 0 0 1 4.312-1.205h21.373V41.46h7.546v48.833h-28.919Zm.317-7.547h19.851c.338 0 .613-.106.824-.317.254-.254.381-.55.381-.888v-19.28c0-.338-.127-.613-.381-.824a1.022 1.022 0 0 0-.824-.38h-19.851c-.338 0-.634.126-.888.38-.211.212-.317.486-.317.825v19.28c0 .337.106.633.317.887.254.211.55.317.888.317Zm55.081 7.547c-1.565 0-2.981-.38-4.249-1.142a9.904 9.904 0 0 1-3.108-3.107c-.761-1.269-1.142-2.685-1.142-4.25V62.009c0-1.565.381-2.98 1.142-4.25a9.291 9.291 0 0 1 3.108-3.043c1.268-.804 2.684-1.205 4.249-1.205h20.357c1.607 0 3.044.401 4.313 1.205a8.747 8.747 0 0 1 3.044 3.044c.761 1.268 1.142 2.684 1.142 4.249v13.699h-29.808v5.834c0 .338.106.634.317.888.254.211.55.317.888.317h28.603v7.547h-28.856Zm-.952-21.5h22.261v-6.532c0-.338-.127-.613-.381-.824a1.022 1.022 0 0 0-.824-.38h-19.851c-.338 0-.634.126-.888.38-.211.212-.317.486-.317.825v6.532Zm57.673 21.5c-1.564 0-3.002-.38-4.313-1.142a9.302 9.302 0 0 1-3.044-3.107c-.761-1.269-1.141-2.685-1.141-4.25V53.51h7.547v28.03c0 .338.105.634.317.888.253.211.549.317.888.317h19.85c.338 0 .613-.106.824-.317.254-.254.381-.55.381-.888V53.51h7.547v28.285c0 1.564-.381 2.98-1.142 4.249a9.293 9.293 0 0 1-3.044 3.107c-1.268.761-2.706 1.142-4.312 1.142h-20.358Zm55.287 0c-1.565 0-2.981-.38-4.25-1.142a9.911 9.911 0 0 1-3.107-3.107c-.761-1.269-1.142-2.685-1.142-4.25V80.59h7.547v.951c0 .338.106.634.317.888.254.211.55.317.888.317h19.851c.338 0 .613-.106.824-.317.254-.254.38-.55.38-.888v-4.693c0-.296-.126-.55-.38-.761a1.021 1.021 0 0 0-.824-.38h-20.104c-1.565 0-2.981-.381-4.25-1.142a9.911 9.911 0 0 1-3.107-3.108c-.761-1.268-1.142-2.684-1.142-4.249v-5.2c0-1.565.381-2.98 1.142-4.25a9.297 9.297 0 0 1 3.107-3.043c1.269-.804 2.685-1.205 4.25-1.205h20.357c1.607 0 3.044.401 4.313 1.205a8.747 8.747 0 0 1 3.044 3.044c.803 1.268 1.205 2.684 1.205 4.249v1.205h-7.611v-.952a1.02 1.02 0 0 0-.38-.824 1.022 1.022 0 0 0-.824-.38h-19.851c-.338 0-.634.126-.888.38-.211.212-.317.486-.317.825v4.693c0 .296.106.57.317.824.254.211.55.317.888.317h20.104c1.607 0 3.044.402 4.313 1.205a8.747 8.747 0 0 1 3.044 3.044c.803 1.269 1.205 2.685 1.205 4.25v5.2c0 1.564-.402 2.98-1.205 4.249a9.302 9.302 0 0 1-3.044 3.107c-1.269.761-2.706 1.142-4.313 1.142h-20.357Z"/></svg>