<svg xmlns="http://www.w3.org/2000/svg" width="690" height="159" fill="none"><path fill="#00F0DE" d="M67.168 82.169.516 43.606v76.688l15.963 9.215V72.792L48.69 92.457v55.646l18.478 10.708V82.169Z"/><path fill="#00F0DE" d="M50.258 129.9 14.96 109.796l.092-19.243 35.205 20.205V129.9Zm22.277-47.731 66.653-38.563v76.688l-15.964 9.215V72.792L91.013 92.457v55.646l-18.478 10.708V82.169Z"/><path fill="#00F0DE" d="m89.477 129.9 35.296-20.104-.091-19.243-35.205 20.205V129.9Z"/><path fill="#008D83" d="m136.931 38.677-17.281 10.18-51.223-29.616 14.811 20.36-8.64 4.937L35.1 36.825l52.458 30.542-17.59 9.872L3.626 38.677l30.06-17.474 20.855 4.812-10.396-10.891L69.969.114l66.962 38.563Z"/><path fill="#fff" d="M188.737 110.605c-2.017 0-3.87-.49-5.559-1.471a11.992 11.992 0 0 1-3.924-4.006c-.981-1.635-1.472-3.461-1.472-5.477V81.993h38.423v-7.521c0-.436-.164-.79-.491-1.063a1.316 1.316 0 0 0-1.062-.49h-36.87V63.19h37.197c2.071 0 3.924.518 5.559 1.554a11.272 11.272 0 0 1 3.924 3.924c.981 1.635 1.471 3.46 1.471 5.477v36.46h-37.196Zm.327-9.728h27.141v-9.973h-28.694v8.42c0 .436.136.817.408 1.144.327.273.709.409 1.145.409Zm59.998 9.728V63.19h59.678c2.071 0 3.924.518 5.559 1.554a11.272 11.272 0 0 1 3.924 3.924c.981 1.635 1.471 3.46 1.471 5.477v36.46h-9.728V74.472c0-.436-.163-.79-.49-1.063a1.32 1.32 0 0 0-1.063-.49h-17.577c-.381 0-.735.163-1.062.49-.273.273-.409.627-.409 1.063v36.133h-9.892V74.472c0-.436-.136-.79-.409-1.063a1.316 1.316 0 0 0-1.062-.49h-17.658c-.382 0-.736.163-1.063.49-.273.273-.409.627-.409 1.063v36.133h-9.81Zm105.698 0c-2.016 0-3.869-.49-5.559-1.471a11.992 11.992 0 0 1-3.924-4.006c-.981-1.635-1.471-3.461-1.471-5.477V81.993h38.422v-7.521c0-.436-.163-.79-.49-1.063a1.32 1.32 0 0 0-1.063-.49h-36.869V63.19h37.196c2.071 0 3.924.518 5.559 1.554a11.272 11.272 0 0 1 3.924 3.924c.981 1.635 1.471 3.46 1.471 5.477v36.46H354.76Zm.327-9.728h27.141v-9.973h-28.694v8.42c0 .436.136.817.409 1.144a1.73 1.73 0 0 0 1.144.409Zm70.414 9.728c-2.016 0-3.869-.49-5.559-1.471a11.992 11.992 0 0 1-3.924-4.006c-.981-1.635-1.471-3.461-1.471-5.477V74.145c0-2.017.49-3.842 1.471-5.477a11.272 11.272 0 0 1 3.924-3.924c1.69-1.036 3.543-1.554 5.559-1.554h27.55V47.658h9.729v62.947h-37.279Zm.409-9.728h25.588c.436 0 .79-.136 1.063-.409.327-.327.49-.708.49-1.144V74.472c0-.436-.163-.79-.49-1.063a1.32 1.32 0 0 0-1.063-.49H425.91c-.436 0-.817.163-1.144.49-.273.273-.409.627-.409 1.063v24.852c0 .436.136.817.409 1.144a1.73 1.73 0 0 0 1.144.409Zm71.001 9.728c-2.017 0-3.842-.49-5.477-1.471a12.778 12.778 0 0 1-4.006-4.006c-.981-1.635-1.472-3.461-1.472-5.477V74.145c0-2.017.491-3.842 1.472-5.477a11.983 11.983 0 0 1 4.006-3.924c1.635-1.036 3.46-1.554 5.477-1.554h26.242c2.071 0 3.924.518 5.559 1.554a11.272 11.272 0 0 1 3.924 3.924c.981 1.635 1.471 3.46 1.471 5.477v17.658h-38.422v7.52c0 .437.136.818.408 1.145.327.273.709.409 1.145.409h36.869v9.728h-37.196Zm-1.226-27.713h28.694v-8.42c0-.436-.163-.79-.49-1.063a1.32 1.32 0 0 0-1.063-.49h-25.588c-.436 0-.818.163-1.145.49-.272.273-.408.627-.408 1.063v8.42Zm74.342 27.713c-2.017 0-3.87-.49-5.559-1.471a11.992 11.992 0 0 1-3.924-4.006c-.981-1.635-1.472-3.461-1.472-5.477V63.19h9.729v36.133c0 .436.136.817.408 1.144.327.273.709.409 1.145.409h25.588c.436 0 .79-.136 1.062-.409.327-.327.491-.708.491-1.144V63.19h9.728v36.46c0 2.017-.49 3.843-1.471 5.478a11.992 11.992 0 0 1-3.924 4.006c-1.635.981-3.488 1.471-5.559 1.471h-26.242Zm71.266 0c-2.016 0-3.842-.49-5.477-1.471a12.788 12.788 0 0 1-4.006-4.006c-.981-1.635-1.471-3.461-1.471-5.477v-1.553h9.728v1.226c0 .436.136.817.409 1.144a1.73 1.73 0 0 0 1.144.409h25.588c.436 0 .79-.136 1.063-.409.327-.327.49-.708.49-1.144v-6.05c0-.381-.163-.708-.49-.98a1.32 1.32 0 0 0-1.063-.491h-25.915c-2.016 0-3.842-.49-5.477-1.472a12.782 12.782 0 0 1-4.006-4.005c-.981-1.635-1.471-3.461-1.471-5.478v-6.703c0-2.017.49-3.842 1.471-5.477a11.992 11.992 0 0 1 4.006-3.924c1.635-1.036 3.461-1.554 5.477-1.554h26.242c2.071 0 3.924.518 5.559 1.554a11.272 11.272 0 0 1 3.924 3.924c1.036 1.635 1.553 3.46 1.553 5.477v1.553h-9.81v-1.226c0-.436-.163-.79-.49-1.063a1.32 1.32 0 0 0-1.063-.49H641.62c-.436 0-.817.163-1.144.49-.273.273-.409.627-.409 1.063v6.05c0 .38.136.735.409 1.062a1.73 1.73 0 0 0 1.144.409h25.915c2.071 0 3.924.518 5.559 1.553a11.272 11.272 0 0 1 3.924 3.924c1.036 1.635 1.553 3.46 1.553 5.477v6.704c0 2.016-.517 3.842-1.553 5.477a11.992 11.992 0 0 1-3.924 4.006c-1.635.981-3.488 1.471-5.559 1.471h-26.242Z"/></svg>